/* XPM */
static char *door[] = {
/* columns rows colors chars-per-pixel */
"64 64 14 1 ",
"  c #212829",
". c #393C39",
"X c #4A494A",
"o c #4A4D52",
"O c #5A5D63",
"+ c #6B696B",
"@ c #7B7D7B",
"# c #DEC300",
"$ c #848684",
"% c #949694",
"& c #9C9A94",
"* c #ADAEAD",
"= c #B5B6B5",
"- c #C6C3C6",
/* pixels */
"OOOOOOOOOOOOOOOOOOOOOOOOOOOOOOOOOOOOOOOOOOOOOOOOOOOOOOOOOOOOOOO.",
"OOOOOOOO. ...................................................++ ",
"O.++++O@. . ooooooooooooooooooooooooooooooooooooooooooooooooO%+ ",
"Oo ####@.$$@@@@@@@@@@@@@@@@@@@$$$$$$$O        %%%$$+         %+ ",
"Oo  ###@.$OOOOOOOOOOOOOOOOOOOOOOOOOO+Ooooooooo%++++OooooooooO%+ ",
"Oo   ##@.@OO......................O++O        %++++O         %+ ",
"Oo    #$.@O.ooooooO++            .+++Ooooooooo%++++OooooooooO%+ ",
"Oo     $.@O.     +   OXXXXXXXXXXXO$@@O        %$$$$O         %+ ",
"O.$    @.@O.oooo+ X X OXXXXXXXXX+.%@@Ooooooooo%$$$$OooooooooO%+ ",
"O.@#   @.@O.   +OO X X +XXXXXXo+..%$$O        %$$$$O         %+ ",
"O.@##  @.$O.oo+OOOO X X +XXXXo+.X.%$$Ooooooooo%%%$$OooooooooO%+ ",
"O.@### @.$O. +OOOOOO X X +ooo+.X.X%$$O        %%%%%O         %+ ",
"O.$####@.$O++$$%%%%%$ X X.+o+.XXX %$$Oo+++++++%%%%%Oo++++++++++ ",
"Oo ####$.$OOO++++@@@@$.X.X.+.XXX X%%%Ooooooooo%%%%%Oooooooooooo ",
"Oo  ###$.$OO+@@@@@@@@@%.X.XXXXX XX*%%%*%*%*%*%%%%%%%*%*%*%*%*%* ",
"Oo   ##$.$+++OOOOOOO$$$%.XXXXX XXX*%%+*+*+*+*+%%%%%+*+*+*+*+*+* ",
"Oo    #$.$++X******%O$$$%XXXX $$$@*%%+%+%+%+%+*%%%%+%+%+%+%+%+% ",
"Oo     @.$OOO*%%O$.*%O++++OXXXXXoo*%%+%+%+%+%+*%%%%+%+%+%+%+%+% ",
"O.$    @.OXX *%+.o.*#%.OOOOX$%%%oo*%%+++++++++*%%$%++++++++++++ ",
"O.@#   @.OOO *%+.O.*##%X@@@@o%%%Oo*%%%%*******%%%%$%%%%$$$$@@$o ",
"O.@##  $.OXX *%+.o.*###%XOOOOo%%Oo*%%%*%***%%%%%%%$%%%%%%%%%%$o ",
"O.@### $.OXX *%+XO.*####%OOOOOo%OO*********%%%%%%%%%%%%%%%%%%%o ",
"O.$####@.OXX.*%+XO.*####%OOOOOOOOO%OOOOOOOOOOOOOOOOOOOOOOOOOOOO ",
"Oo ####@.OXX.*%+XO.*###%XOOOOOOOOO%O O%O O%O%%%%%%%%%%$O$OOOOO+ ",
"Oo  ###@.OOO.*%+XO.*##%X@@@@@@@@@O%O O%O O%OOOOOOOOOOOOO$OO$$$+ ",
"Oo   ##@.OXX.*%+XO.*#%XOOOOOOOOOOOOOOOOOOOOOOOooooooooXXXXXXXXX ",
"Oo    #@.%$$O*%++%.*%@$***************************************$ ",
"Oo     $.%$$O%%%%%%%@%%%%%%%%%%%%%%%%%%%%%%%%%%%%%%%%%%%%%%%%$+ ",
"O.$    $.%$$$+++@+@@%%%*******%**%%%%%%%%%%%%%%%%%%%%%%%%%%%%$+ ",
"O.@#   $.%$$$%%%%%%%%%%*******%%%%****************************$ ",
"O.@##  $.%$$OOOOOO**%OOOOOO***%**%*********+**$**$**$$%%%%%$$$+ ",
"O.@### @.%@$O&&&&&&*@O======**%%%%*%%%%%%%%O*%O*%O*%O$%%%%$$$$+ ",
"Oo$####@.%%$O&&&&&&*%O======**%**%*%OO++@*%O*%O*%O*%O$%%%$$$$$+ ",
"Oo ####@.%%$O&&&**&*%O===--=**%%%%*%@@@%%*%O*%O*%O*%O$$$$$$$$$+ ",
"Oo  ###$.%%$O&&***&*%O==---=*%%%%%*%OO++@*%O*%O*%O*%O$$$$$$$$$+ ",
"Oo   ##$.**$O&****&**O=----=*******%@@@$$*%O*%O*%O*%O$$$$$$$$$+ ",
"Oo    #@.@@$O&****&*@O=----=*@@@@@*%OO++@*%O*%O*%O*%O$$$$$$$$$+ ",
"Oo     @.%%$O&***&&*%O=---==*%%%%%*%%%%%%%%O*%O*%O*%O$$$$$$$$$+ ",
"Oo%    @.%*$O&***&&**O=---==*%%%%%*%OOOOOOOO%OO%OO%OO$$$$$$$$$+ ",
"Oo$#   @.**$$&&&&&&***======*%%%%*%%o..............XXXXXXXXX+OO ",
"Oo$##  @.%*$*****************%%%*%$o$$$$$$$$$$$@@@@@@@@@@@@@@@+ ",
"Oo$### $.**%*$$$$$$$**+%%%%%%%%*$$o$$$..................XXXX%@+ ",
"Oo$####$.**%*$%%%%%%$**@%%%%%%*$$o$$$ oOOOOOOo ooo ooo ooo.o%@+ ",
"Oo ####$.**%*$%%%%%%%$**+%%%$*$$o$$@ oOOoooooo.Ooo.Ooo.Ooo.O%++ ",
"Oo  ###$.**%*$$$$$$$$%$**%$$*$$o$@@ Xoo+++++++o$++o$++o$++o@%++ ",
"Oo   ##@.**$****************$$o@@@ ...ooooooXXX@OOXOXXX@OOXO%++ ",
"Oo    #@.*%%%%%%%%%%%%%%%$$$$o@@+ OOO@@@@@@@@@O@OOX@@@O@OOX@%++ ",
"Oo     @.%OOOOOOOOOOOOOOOOOOO@@+ OOOOOOOOOOOOOO+OOO%OOX@OOX@%++ ",
"O.$    @.%%%%$%%%%%%%$$$$$@@@+++++++++++++++++++++++@OX@OOX@%++ ",
"O.@#   @.*%%%%%%**************%%%%%%%%%%%%$$$$$$$$O++@X@OOX@%++ ",
"O.@##  $.*%%%%%%%%%$$$$@@@+++++++++++++++++++++++++O++@@OOX@$++ ",
"O.@### $.*OXXXXXX...........................XXXXXXXXO++@@@@@@++ ",
"O.$####@.%++++++++++++++++++++++++O+OO+++++++++++++++++++++++++ ",
"Oo ####@...........X+++++OOOOOOOOOOOOOOOOOOOOOOOOOOOOOOOOOOOOO+ ",
"Oo  ###@.X........X++OooooooooooooooooooooooooooooooooooooooO%+ ",
"Oo   ##@.X.......X++Oo                           Oo. Oo. Oo. %+ ",
"Oo    #@.X......X+++oooooooooooooooooooooooooooooOo. Oo. Oo.O%+ ",
"Oo     $.X.....X+++o                             Oo. Oo. Oo. %+ ",
"O.$    $.X....X+++ooooooooooooooooooooooooooooooo@o..@o..@o.O%+ ",
"O.@#   $.X...X+++o                               $o. $o. $o. %+ ",
"O.@##  $....X++Oooooooooooooooooooooooooooooooooo$o o$o o$o O%+ ",
"O.@### $.$$$$$$$$$$$$%%%%%%%%%%%%%%%%%%%%%%%%%%%%$oo+$oo+$oo%%+ ",
"OoO@@@$$+++++++++++++++++++++++++++++++++++++++++++++++++++++++ ",
"                                                                "
};
