/* XPM */
static char *floor_dirt[] = {
/* columns rows colors chars-per-pixel */
"64 64 34 1 ",
"  c #070707",
". c #0B0B0B",
"X c #170F07",
"o c #0F1700",
"O c #171F07",
"+ c #1F170B",
"@ c #131313",
"# c #1B1B1B",
"$ c #2F1B0B",
"% c #232B0F",
"& c #372313",
"* c #332B13",
"= c #3F2F17",
"- c #3F2B1B",
"; c #2F371F",
": c #232323",
"> c #272727",
", c #2F2F2F",
"< c #373F27",
"1 c #373737",
"2 c gray23",
"3 c #432F1B",
"4 c #4B371B",
"5 c #533F1F",
"6 c #473323",
"7 c #4F3B23",
"8 c #4F3B27",
"9 c #4F3B2B",
"0 c #533F2F",
"q c #3F472B",
"w c #5F4323",
"e c #5B472B",
"r c #474F33",
"t c #53573B",
/* pixels */
"+3===7&+&-43==6-=&>-7-=3&74474;4$$$$=4&61-34-35$$O$=44--4&$X.XXX",
"+.$744$$4==3==4=3&3<4=347w64466&+XX+X$43---=-=$+3&&$-6&->==&$XXX",
"XXX$$++$&433==>=-;6-646476&744$++$&$$$--=&-=3$XO-+&&=4&$4-&$$$&+",
"$+X+.X$$4==4476&4&6=4-54>%=&%$%3$>6=%,4==&=4$X+&-$$3=4&-<-4&&&&=",
"-=$OXX&&=-7546=345$49-4&=76-$$&=34;>=65==$+X++&3&=$$&&&$&&=;=63=",
"&&4$XX=&>7==44*&4-7&46$-9-$$$&&==;6$6&4-=$$+$=$&%&&$==-%&$====4=",
"3==-$X$734=-===448447w==&O$$+-46=4,46344&#O+4&%&=$-&4===-3=&&=-6",
"=84-&$X5-$=-&w744<7-9q3$O$&;$$=490444=%w=$X+1$--3&4&==;&3-&&-=-=",
"67-==4+$7-$*494;65&w4$$$&&=&&&$746664=463+X$8$&-=3&-46-&$==-&=43",
"=-==&7++-9=&&&376e4$++&-&-=-&&=$-<6==44=$+X+=$&3-&$&&=$3$&44$&-3",
"7<67=-$O&=96774=q4$++==-363=-3&&&83;4=$+++XO&$-83=&=$&&&&&&;$334",
",4-&-5$+$$&79e5=#+$$77=---=416-&&%33w4$+XXX+=:=4---5,&$&$&&6&=-=",
"&&-6-&X+&=3r=$XX +&4=3=-6&3746-3&:&$=-6$+XX+6&567&$$=-$$$$&;6&--",
"433<&XX,4&344&XXXX5=&6&<==34=46==3&67=34XoXX%=&436=&==$&6&&=33$-",
"3-6&++&$&&=-64=$+$6=-4q4-84====6<=68=64w..XX&$&&&;=&&&&#=&&=6&43",
"=74$$$4$=$&6e7%$$=67w6e76-3-=44677746;3=. ..;$-4&4-$$==&&$$$-$&=",
"46$$$+4$=$&4&-&#$&$74<94=-63=67787-;346X.   -&=&74&$$+-3:&&$&%=-",
"=XXX&o&6=3365--&&-&%74&-6444-==6=;5=3&$+XXXX&33=$3==&&7-=--&&$&-",
"X..$4335$3=4946&-3==7-446q5&-4-$=4557=$$$$+$$6==-46=#=%,=6&&&-==",
".X$$-43&4&347=&&-;74>474647=4q$869w0=&>&&;-&%4=-=44&=&==4&5--4&X",
"=3$+$3-$>&=64-6$--w;76<44-=4&366-9=$&$$&=3&6$#43447=-66&&=--$-XX",
"&$&46-64+&&&4--4=&6=4&59=646;&474&$$$$$$$$&&$+X7--;3-&==&3=7=X%4",
"&&-664;9$$3-==56w&$46=744-&+&-44=&$$&$&&&$X++X+ -46-$&=-&<4-+$-7",
"63<05-74=+$+-6454%+$4=0844;-7474>&==5q747e=X+$$$.757$4->27&X$&$=",
"-=76446-&+o$$=474$+X$4779w699-=&4=4658==4;43X$&;$X6&-6=33+X+$$&3",
"=3444<--4+X+41&3$++o+$9=44$4&+%3=4;-&w476-67$#6==&$+&=34+Xo$$=48",
"63=44&33&3.X@X+X+$+$#+$=-9&++$$=&5$&7w646=6w4+=3=-$$&64+X+$+&466",
"74&47;3=&-X  X..X+&&=&$$$$++X$$=-4499e9479et5&9$3-3%+$&+X$*$46-4",
"44&;&473=&X  XX+$484=3$XXXO+X$$$5=94w744365e4-e&&>3&$X$$$&$=74=<",
"=-=65=-6=&+++$$4786=74=+o+++++$%$&=604$=-=6-$$647$&-4$64-&$--4-3",
"743<77643=++$-$$4e+&w>4++%&=43=&>$&=66$36w7$$3<&e9q44-=4&4-6q4=3",
"=-3475e444$$&$8559-q99w$$3675e54&:$=w=54w44$%$4=664&=&$-&-744464",
"5746766=$&$=&46=74;&7w-&677467974-$$$-4$9&=4----;66444&=--443=7=",
"98=464=4$$$=-5-444=-6-$44e64=4&=$6-$$$$-$&67-6<4==3&&e479;444444",
"47-=<8=$X+-4;6774q4$.X+46e7777w275e2&$$&&=8&477646===57854547547",
"4&877=O+X+4&557-477&+X$4$7674<546=w7&$=&4&$66-&=45;4374-&5954-94",
"675=<$+XX&->4--=<4&=3#+=$6=+&74=&&65w=$$5-+%4&;&4-467464-344&7=&",
"7wq=$+++$3-447-4404ww3$%&--#<9w46<w64&=&4=ww6&&5;-6=7=4qe===w36=",
"544$XXX+$&<78w474ee494&$=4==-7e4-495w=5$=67465&4=49==4&6==$&=-6>",
"44$+..X4-&6&=704-4==w4-$39&7ww55=;714=+&-$76+6=6=w43&-%-4=$+$--=",
"&+X .X$4&66-444==7&554=&+=;&754=774-7$$&45-86634633=-6=#4&$$$+&5",
"X. .X&7443&,4464=46787e<&>=6944-49799+$&4&644<--$==%--4-43$$&$$+",
"X. .+744<4=3544464=66ew6=&&747=65794-o+&4-=74--=643&-=4=<&-&=7=+",
"$$XX$=4143-3744e$0745774-&&4e44449=-&XX$=4&4<=&&&=-&&&&-4&-==6-9",
"=6=$-%44=4;&444%468944==4+$+6w=-6-66$XX$&,&=4#&=$&4$-$&=7&$3=&==",
"34-+$-4466%44446665q744-$9XXX$9=4&4$$X +$$&-=7=&=-&-&&&&=$4-&=-4",
"73$+&+3$-469146740ee4ee773Xo$$$6t7=+X++$o$=36;=44&=3$+:&3+-;-&&4",
"4$+X+$6-677725845744w-4,=$$-=&&$$=$X $,6&X&7443==&-=%-&--X=4==39",
"+XXX +6=$-65444754=774=9&O,$====&$$.X=&46&$$6we53463-==&$XX37694",
"$+O+XX%>6644==7=w-&w=-0&-6=55w97=&$X&$=484=$O=w5=67<=&3+$O+$++++",
"$$$+X+X=%7&44-46577e94&$%=4457669<++==&4&-<4$&45-3$-&&+-$-44-&$+",
"-$=4=+X.$64=46&4&44e6&O3$&644=&67&+$=$674---6&&4=6&45$=$$$3--$&-",
"&&&49=XX+77&-=7=&384#$4&&6644&4>4$+-&76&6<&&=5&+=6$&$$$&3&6<43=-",
"846===-%+$&4=&=&%-4++&$--4444445<+&=&6;&74-6=48&$O&+$7-3=3-51443",
"=-674379&$+&4&&$4-XO$&3%6384e<64$$7>4-4=&-%4-4=4$XX+&4&;-646=--4",
"74=4<74;e=++$474++$-%$;665264-4=$4=4334=&=;=458==.X+==&-676641=<",
"64744674644$X+:++$5=&&6746w4&37$=&=5&=--4=3-444-&q+.$4&3=4&8-4-6",
"=366&75-3467$OXX$==34&6774544-4O&X66%6==66;=44&=-43XX3=3=44=3=:$",
"66=3-6;&5444=$+&6=-=$-%64444-;4X=&=-3-&3-676w&$&%=4$X+4=864;-&$&",
"6=&346&<=357$=4&75=-&+83=44=4=-+==&6;&=36-&4-$-%&-$6$o$97&=-=&&-",
"=4=776664&546&&=54=&&=49w44$587$634<7-66===&=&&=6-$4$+X=6=43=&%$",
"&--&3;-1ew&7&646=>43&;74w=677<=$4%64=7=33==&=1&&$&35$XX+e9=-;>$$",
"-&=-&&&44$474=--44==-3-444449-4$&$6=>=4=&643=6=1$-0,+  X$$&643$&",
"-&&=3676$=-,&3===4&-&6674=44467$$&77$&=6===4&3;=6=+X+XXX++XX#-65"
};
