/* XPM */
static char *Wall_West[] = {
/* columns rows colors chars-per-pixel */
"64 64 32 1 ",
"  c #0B0B0B",
". c #170F07",
"X c #1F170B",
"o c #131313",
"O c #1B1B1B",
"+ c #13230B",
"@ c #2B230F",
"# c #332B13",
"$ c #3F2F17",
"% c #2F371F",
"& c #232323",
"* c #272727",
"= c #2F2F2F",
"- c #373F27",
"; c #373737",
": c gray23",
"> c #43331B",
", c #4B371B",
"< c #533F1F",
"1 c #473323",
"2 c #4F3B23",
"3 c #4F3B2B",
"4 c #533F2F",
"5 c #3F472B",
"6 c #5B472B",
"7 c #574333",
"8 c #5F4B37",
"9 c #53573B",
"0 c #675333",
"q c #67533F",
"w c gray28",
"e c white",
/* pixels */
"++@@@@@@@@@@@+++@+@++++@@@@@@+++++@@@@@@@@@@@+++@+@++++@@@@@@+++",
"@===&&&&&@+@**&@*&&*@*##****#*>=@===&&&&&@+@**&@*&&*@*##****#*>=",
"=:7:===>:>=>=:>>w:77777777887::5X:7:===>:>=>=:>>w:777777777q7::>",
"w8777776<72222767227772272277773X7777776<72222767227772272277772",
"2224<22$2222,#2622#>2>,<2>$22222X5>>>2>$2222$#2622$>2>#22>$2222$",
">2222>2>>,2,,$>2>$#>2>,<,,$222>5X5#$>>$>,222#$>2>$$>2>#>>$$222>$",
">>,77>2>2,,>,$>>$$$$2>,<,,>22>$5X5#$>>>>2,2>$$>>$$$$2>#$>#>22>>$",
">>,2222>7,<>,$>>$>$>>$,<,,$22>#1X5#$>2>>2<2>$*>>$>$>>$#$>#$22>#>",
"$>>27>227,<>,$>>$$#>>$,<,,>>>>$1X1#$>>>>2<,>$*>>$*$>>$#$>$>>>>>$",
"=>>22$2$7,,2,$>>###>>>,<2,$>>$>1X1#$$$>>2<,2$$>>$#$>>$##eeeee$>*",
"$>>7>#eeeee2,$>>##*>=>,<,,>$>#>1X1#$$#>>2,,2#$>>$#$>=$#eeeeeee$*",
"$>>2,eeeeeee,>>>#*$>>#><,,>>>#$1X1##$$>$,,,>#>>>$*$>>#*eeeeeee*$",
"$>$>2eeeeeeee$#>##$>$>>,,,>>$#>1X1##$$$$,,,>#$#>$#>>$#eeeeeeee$$",
"$>>>,eeeeeeee$$>#*$>$#>,,,#$>>#1X1##$>$$,2,2>$$>#*>>$*eeeeeeee#$",
"$>$>>eeeeeeee$>>#>$>##$><,>>#*>1X1##$>>#,2,2>$>>#>*>#eeeeeeeee$$",
"$=>2>eeeeeeeee>>$*$>$*,><,>>>$>1X1##$$#$7,,2>$>>$*$>*eeeeeeeee>$",
"$>>>>eeeeeeeee>>#>#$$$>>,,>>#=$1X1##$$*>,,,2>#>>*>*$eeeeeeeee==$",
"*>>>>>eeeeeeeee$#*##$*>>,$$>>*#1X-##$>**,>,2>$2>#**$eeeeeeeee*#>",
"#>>>,>eeeeeeeee##*##>#$>$$>>>#$1X-##$>$$>$,7>$>$***eeeeeeeee>##>",
">$$$2>#eeeeeeeee#*##$#$$,$>$#$$-X-##$>#$>#,4>*>==*#eeeeeeeee#$#>",
">##>,*$eeeeeeeee##*#$#,$>$$#*$$-X-*#$*$*>$,2>#*>*#eeeeeeeee#*$*=",
">$$>>>**eeeeeeeee$##$>>$,$$#*$$-X-##$>**>$,>>#$*$$eeeeeeeee#*$$>",
">>#*,=#>eeeeeeeeee>##*>>,>>#=$$-X-**$=#>>#>>$*#>#eeeeeeeee>#=$>>",
">>*#<>#$>eeeeeeeee**#*,>,>>##$$-X-*#$>#$>$>>$***eeeeeeeeee>$#$>>",
">>*>>#$$>eeeeeeeeee###,>,>>##$$-o-*$>#$$>$>>$#*=eeeeeeeee#>$#$>>",
">$*$$**#$>eeeeeeeee###,>,>>##$=- -*$***#$>>>$**>eeeeeeeee#>$#$=#",
">$=,=#=>#>eeeeeeeee*#@,>>>$##$#- -=$=#=>#>>>$$*eeeeeeeee##$*#$##",
">>$>**>#>>#eeeeeeeee##>$,$$*#*#1.-#$**>#>>$>$*#eeeeeeeee*##*#*#$",
"=>$>#*#>>$$$eeeeeeeee#>$,$>$*#*1@-#$#*#>>$$>$**eeeeeeee#@*>**#*>",
"=$>####$>$$#eeeeeeeee=#$>$#=#*#1X-#####$>$$>$$eeeeeeeee#*@#*#*#>",
"=>>**#*>$#$>eeeeeeeeee#$$$###@#;X;#**#*>$#$>$#eeeeeeeee*#@#*#@#>",
"*=>$*##$$#$>$eeeeeeeee#$>$@#*##%X-#$*##$$#$>$#eeeeeeee***#@**##$",
"*=>####*$#$>$#eeeeeeeee$,$#@*=*-X-########$>$eeeeeeeee*#@@#**=*#",
"==***###$#$>*@eeeeeeeee$>##@#=#%X-*=*##$##$>$eeeeeeeee**@*=*#=##",
"#*>>***+$#$$###eeeeeeee$>#*@##@-X;>>***+#*$$$eeeeeeee***&&**##*#",
"#*=*#*#*$#$$*##eeeeeeeee$#**#*+%eeeeee#***$$$eeeeeeee**&****#**#",
"#>=****=$#$#*#+eeeeeeeeee#*#@**eeeeeeee=@#$$eeeeeeee***@*&**@***",
"#>#*****$#$*##**eeeeeeeee#@@*eeeeeeeeee*##$$eeeeeeee*=@**#**@***",
"@*#*>**>$#$##***eeeeeeeee##@eeeeeeeeeeee##$#eeeeeeee*##*****@***",
"+*#=*#=*$#$*###=#eeeeeeeee@@eeeeeeeeeeee##$eeeeeeeee**@**#**@***",
"#=#####*$#$*##**#*eeeeeeee#eeeeeeeeeeeee*#$eeeeeeee****@*@******",
"#=##=###$#$*+##**#eeeeeeeeeeeeeeeeeeeeee#$eeeeeeeee*@*@**@***+@*",
"772-46694669476777eeeeeeeeeeeeeeeeeeeeeee4eeeeeeeee6064746694767",
"=$$#$$##*=#****@@**eeeeeeeeeeeeeeeeeeeeeeeeeeeeeee#@**#*$>*#***#",
"**$#$$#**###***@@@*eeeeeeeeeeeeeeeeeeeeeeeeeeeeeee#@**##$>####**",
"*#$#$$$####=**=@@*+eeeeeeeeeeeeeeeeeeeeeeeeeeeeee*#@**#*>$*=#*@#",
"*#$##$@#=###**#@@*@*eeeeeeeeeeeeeeeeeeeeeeeeeeeee**@**#*>#@=**@*",
"*##$#$$###*****@@**##eeeeeeeeeeee6eeeeeeeeeeeeee#*##**##$#*###@#",
"*#$$$$$*#****#*@@@**@eeeeeeeeeeee6eeeeeeeeeeeeee*@#*@*#@#*#*#@#=",
"$$#>$>*@*****##@@#**@@eeeeeeeeeeo6#eeeeeeeeeeee@###@**#@#*==####",
"*$*#$>#****#@##@@***@*eeeeeeeeeeo6*#eeeeeeeeeee***##@@#@**#=*#*#",
"*+@#>###**=@*#*@@***@##eeeeeeee6o2@##eeeeeeeee##=*#**@##*****@*#",
"$$#$$$###*#@*+@@@@**@##$eeeeeee7o2*#*eeeeeeeee=#****@@#***#@##**",
"@**$,$*###=@@*=@@*+*@@#$#eeeee#2o2#+*$eeeeeeee=#*****@#*@**+###*",
"*=#$$$*##==@@#=#@*@**@#$#@##***2o2@@*$#eeeeee##+*#********#@##**",
"****$$####=@@@#*@**##@#$#@*##**7o2##*$##*#**##*@*****@*@**#+@#**",
"@***$$$#*#=@@+**@@**@@#$##*#***2o2@**$###**>##*@********@&@###**",
"*****$$*$*>@@**#@#**@@#>##@#@**2o2##*$#$**@>###@#****@***#@@#@*#",
"..o.oo .oo . .. ..o.oo . .. ..o@o@.o.. .. . oo..o.. .. .oo . .. ",
"XXOOOOOOOOOOoXoXXXOOOOOOoXoXXXO@.@XOXXXoXoOOOOOXOXXXoXoOOOOOoXoX",
"@*=#@***$#***###*#*#*####@##@**-X%##@****#$$@$@**#**#@#@@*@@@@@#",
"#**#*###$@**###*##**########@**-X-*####*#*#$@####**##+#@@@@@@@@#",
"#**#####$$#*#@#**#****@#####@*#-X-*#*##*@*$$###*****##@&@=*@**@#",
"#@######$$@#@#####@*@*#####@@#@%X-*#@***@##$###@**#*@@@@*@#@@@@*"
};
