/* XPM */
static char *Wall_East[] = {
/* columns rows colors chars-per-pixel */
"64 64 32 1 ",
"  c #0B0B0B",
". c #170F07",
"X c #1F170B",
"o c #131313",
"O c #1B1B1B",
"+ c #13230B",
"@ c #2B230F",
"# c #332B13",
"$ c #3F2F17",
"% c #2F371F",
"& c #232323",
"* c #272727",
"= c #2F2F2F",
"- c #373F27",
"; c #373737",
": c gray23",
"> c #43331B",
", c #4B371B",
"< c #533F1F",
"1 c #473323",
"2 c #4F3B23",
"3 c #4F3B2B",
"4 c #533F2F",
"5 c #3F472B",
"6 c #5B472B",
"7 c #574333",
"8 c #5F4B37",
"9 c #53573B",
"0 c #675333",
"q c #67533F",
"w c gray28",
"e c white",
/* pixels */
"++@@@@@@@@@@@+++@+@++++@@@@@@+++++@@@@@@@@@@@+++@+@++++@@@@@@+++",
"@===&&&&&@+@**&@*&&*@*##****#*>=@===&&&&&@+@**&@*&&*@*##****#*>=",
"=:7:===>:>=>=:>>w:77777777887::5X:7:===>:>=>=:>>w:777777777q7::>",
"w8777776<72222767227772272277773X7777776<72222767227772272277772",
"2224<22$2222,#2622#>2>,<2>$22222X5>>>2>$2222$#2622$>2>#22>$2222$",
">2222>2>>,2,,$>2>$#>2>,<,,$222>5X5#$>>$>,222#$>2>$$>2>#>>$$222>$",
">>,77>2>2,,>,$>>$$$$2>,<,,>22>$5X5#$>>>>2,2>$$>>$$$$2>#$>#>22>>$",
">>,2222>7,<>,$>>$>$>>$,<,,$22>#1X5#$>2>>2<2>$*>>$>$>>$#$>#$22>#>",
"$>>27>227,<>,$>>$$#>>$,<,,>>>>$1X1#$>>>>2<,>$*>>$*$>>$#$>$>>>>>$",
"=>>22$2$7,,2,$eeeeeeeeeeeeeeeeeeeeeeeeeeeeeeeee>$#$>>$##2#$>>$>*",
"$>>7>#2#2,,2,eeeeeeeeeeeeeeeeeeeeeeeeeeeeeeeeeee$#$>=$##>>>$>#$*",
"$>>2,$2$>,,>eeeeeeeeeeeeeeeeeeeeeeeeeeeeeeeeeeee$*$>>#*#$$>>>#*$",
"$>$>2$2$>,,>eeeeeeeeeeeeeeeeeeeeeeeeeeeeeeeeeeee$#>>$#*#$$>>$#$$",
"$>>>,>>$>2,2eeeeeeeeeeeeeeeeeeeeeeeeeeeeeeeeeeee#*>>$**#>,$$>$#$",
"$>$>>>>#22,2eeeeeeeeeeeeeeeeeeeeeeeeeeeeeeeeeeee#>*>##*$$,>>$$$$",
"$=>2>$#$7,,2eeeeeeeeeeeeeeeeeeeeeeeeeeeeeeeeeee>$*$>**$#$>>>>$>$",
"$>>>>$*><>,2eeeeeee$$$>>,,>>#=$1X1##$$*>,,,2>#>>*>*$*$##>#>>#==$",
"*>>>>>*$,>,2eeeeeee#$*>>,$$>>*#1X-##$>**,>,2>$2>#**$**##$>$>>*#>",
"#>>>,>$$>$,7eeeeeee#>#$>$$>>>#$1X-##$>$$>$,7>$>$****>*###$>>>##>",
">$$$2>#$>#>4eeeeeee#$#$$,$>$#$$-X-##$>#$>#,4>*>==*#**@###$>$#$#>",
">##>,*$*>$$2eeeeeee#$#,$>$$#*$$-X-*#$*$*>$,2>#*>*#***$###>$#*$*=",
">$$>>>**>$><eeeeeee#$>>$,$$#*$$-X-##$>**>$,>>#$*$$##*>$##$$#*$$>",
">>#*,=#>>#>,eeeeeee##*>>,>>#=$$-X-**$=#>>#>>$*#>#=>##$$#@$>#=$>>",
">>*#<>#$>$#>eeeeeee*#*,>,>>##$$-X-*#$>#$>$>>$***#***#*>###>$#$>>",
">>*>>#$$>$$>eeeeeee###,>,>>##$$-o-*$>#$$>$>>$#*=**###=>###>$#$>>",
">$*$$**#$>>>eeeeeee###,>,>>##$=- -*$***#$>>>$**>#@*#=*$#*#>$#$=#",
">$=,=#=>#>>>eeeeeee*#@,>>>$##$#- -=$=#=>#>>>$$***@**=@*###$*#$##",
">>$>**>#>>#>eeeeeeeeeeeeeeee#*#1.-#$**>#>>$>$*#*#@###**#*##*#*#$",
"=>$>#*#>>$$$eeeeeeeeeeeeeeeee#*1@-#$#*#>>$$>$***=#@#*#*#@*>**#*>",
"=$>####$>$$#eeeeeeeeeeeeeeeee*#1X-#####$>$$>$$>*####==*#*@#*#*#>",
"=>>**#*>$#$eeeeeeeeeeeeeeeeee@#;X;#**#*>$#$>$#**#*#*=#**#@#*#@#>",
"*=>$*##$$#$eeeeeeeeeeeeeeeeee##%X-#$*##$$#$>$####*@******#@**##$",
"*=>####*$#$eeeeeeeeeeeeeeeeee=*-X-########$>$##=*@#*@**#@@#**=*#",
"==***###$#$eeeeeeeeeeeeeeeee#=#%X-*=*##$##$>$@*>#@*=@#**@*=*#=##",
"#*>>***+$#$eeeeeeeeeeeeeee*@##@-X;>>***+#*$$$##>#=*#****&&**##*#",
"#*=*#*#*$#$eeeeeee*##*#$$#**#*+%X5==#*#***$$$##**=*****&****#**#",
"#>=****=$#$eeeeeee###*#$>#*#@**-o-*=***=@#$$$#+*##*****@*&**@***",
"#>#*****$#$eeeeeee###=@$>#@@**@%o;******##$$##**#**@*=@**#**@***",
"@*#*>**>$#$eeeeeee@####$>##@***%o-**>**>##$##********##*****@***",
"+*#=*#=*$#$eeeeeee=##*#$>#@@***%o-***#=*##$$#$$=#**@**@**#**@***",
"#=#####*$#$eeeeeee**#@$$>##@**@%.-**###**#$$##**#******@*@******",
"#=##=###$#$eeeeeee*=#*>#>#@@*+*%.-**=####$$$#$#**#**@*@**@***+@*",
"772-4669466eeeeeee2-466947677777O2777660647674277766064746694767",
"=$$#$$##*=#eeeeeee**@@#>$#*##=*2o6##*$#$*=#*=#*+**#@**#*$>*#***#",
"**$#$$#**##eeeeeee**@##>$$@#***2o2##*$#$*#####=#**#@**##$>####**",
"*#$#$$$####eeeeeeee*@@#>#>*#=*#7o6#+*$#$###=##=##*#@**#*>$*=#*@#",
"*#$##$@#=##eeeeeeee**@#>#$##***7o6@@*$#$=######+#**@**#*>#@=**@*",
"*##$#$$###*eeeeeeee##@#>##*##**7o6##*$####**##*@#*##**##$#*###@#",
"*#$$$$$*#**eeeeeeee*@@#>##*#***7o6@**$###**>##*@*@#*@*#@#*#*#@#=",
"$$#>$>*@***eeeeeeee*@@#>##*#@**7o6##*$#$**@>###@###@**#@#*==####",
"*$*#$>#****#eeeeeeeee*#>##**@#=6o6*#*$#$*#@###****##@@#@**#=*#*#",
"*+@#>###**=@eeeeeeeeeeeeeeee=*#6oeeeeeeeee###=##=*#**@##*****@*#",
"$$#$$$###*#@eeeeeeeeeeeeeeeeeeeeeeeeeeeeeee###=#****@@#***#@##**",
"@**$,$*###=@eeeeeeeeeeeeeeeeeeeeeeeeeeeeeee=##=#*****@#*@**+###*",
"*=#$$$*##==@eeeeeeeeeeeeeeeeeeeeeeeeeeeeeee####+*#********#@##**",
"****$$####=@@eeeeeeeeeeeeeeeeeeeeeeeeeeeeee*##*@*****@*@**#+@#**",
"@***$$$#*#=@@+eeeeeeeeeeeeeeeeeeeeeeeeeeeee>##*@********@&@###**",
"*****$$*$*>@@**#eeeeeeeeeeeeeeeeeeeeeeeeee@>###@#****@***#@@#@*#",
"..o.oo .oo . .. ..o.oo .eeeeeeeeeeeeee .. . oo..o.. .. .oo . .. ",
"XXOOOOOOOOOOoXoXXXOOOOOOoXoXXXO@.@XOXXXoXoOOOOOXOXXXoXoOOOOOoXoX",
"@*=#@***$#***###*#*#*####@##@**-X%##@****#$$@$@**#**#@#@@*@@@@@#",
"#**#*###$@**###*##**########@**-X-*####*#*#$@####**##+#@@@@@@@@#",
"#**#####$$#*#@#**#****@#####@*#-X-*#*##*@*$$###*****##@&@=*@**@#",
"#@######$$@#@#####@*@*#####@@#@%X-*#@***@##$###@**#*@@@@*@#@@@@*"
};
