/* XPM */
static char *Wall_North[] = {
/* columns rows colors chars-per-pixel */
"64 64 32 1 ",
"  c #0B0B0B",
". c #170F07",
"X c #1F170B",
"o c #131313",
"O c #1B1B1B",
"+ c #13230B",
"@ c #2B230F",
"# c #332B13",
"$ c #3F2F17",
"% c #2F371F",
"& c #232323",
"* c #272727",
"= c #2F2F2F",
"- c #373F27",
"; c #373737",
": c gray23",
"> c #43331B",
", c #4B371B",
"< c #533F1F",
"1 c #473323",
"2 c #4F3B23",
"3 c #4F3B2B",
"4 c #533F2F",
"5 c #3F472B",
"6 c #5B472B",
"7 c #574333",
"8 c #5F4B37",
"9 c #53573B",
"0 c #675333",
"q c #67533F",
"w c gray28",
"e c white",
/* pixels */
"++@@@@@@@@@@@+++@+@++++@@@@@@+++++@@@@@@@@@@@+++@+@++++@@@@@@+++",
"@===&&&&&@+@**&@*&&*@*##****#*>=@===&&&&&@+@**&@*&&*@*##****#*>=",
"=:7:===>:>=>=:>>w:77777777887::5X:7:===>:>=>=:>>w:777777777q7::>",
"w8777776<72222767227772272277773X7777776<72222767227772272277772",
"2224<22$222eeeeee2#>2>,<2>$22222X5>>>2>$2222$#2622$>2>#22>$2222$",
">2222>2>>,eeeeeeee#>2>,<,,$222>5X5#$>>$>,222#$>2>$$>2>#>>$$222>$",
">>,77>2>2,eeeeeeee$$2>,<,,>22>$5X5#$>>>>2,2>$eeeee$$2>#$>#>22>>$",
">>,2222>7,eeeeeeeee>>$,<,,$22>#1X5#$>2>>2<2>eeeeeee>>$#$>#$22>#>",
"$>>27>227,eeeeeeeee>>$,<,,>>>>$1X1#$>>>>2<,>eeeeeee>>$#$>$>>>>>$",
"=>>22$2$7,eeeeeeeee>>>,<2,$>>$>1X1#$$$>>2<,2eeeeeee>>$##2#$>>$>*",
"$>>7>#2#2eeeeeeeeeee=>,<,,>$>#>1X1#$$#>>2,,2eeeeeee>=$##>>>$>#$*",
"$>>2,$2$>eeeeeeeeeee>#><,,>>>#$1X1##$$>$,,,>eeeeeee>>#*#$$>>>#*$",
"$>$>2$2$>eeeeeeeeeeee>>,,,>>$#>1X1##$$$$,,,eeeeeeee>$#*#$$>>$#$$",
"$>>>,>>$>eeeeeeeeeeee#>,,,#$>>#1X1##$>$$,2,eeeeeeee>$**#>,$$>$#$",
"$>$>>>>#eeeeeeeeeeeeee$><,>>#*>1X1##$>>#,2,eeeeeeee>##*$$,>>$$$$",
"$=>2>$#$eeeeeeeeeeeeee,><,>>>$>1X1##$$#$7,,eeeeeeee>**$#$>>>>$>$",
"$>>>>$*>eeeeeeeeeeeeeee>,,>>#=$1X1##$$*>,,,eeeeeeee$*$##>#>>#==$",
"*>>>>>*$eeeeeeeeeeeeeeee,$$>>*#1X-##$>**,>eeeeeeee*$**##$>$>>*#>",
"#>>>,>$eeeeeeeeeeeeeeeee$$>>>#$1X-##$>$$>$eeeeeeee**>*###$>>>##>",
">$$$2>#eeeeeeeeeeeeeeeeee$>$#$$-X-##$>#$>#eeeeeeee#**@###$>$#$#>",
">##>,*$eeeeeeee>eeeeeeeee$$#*$$-X-*#$*$*>eeeeeeeee***$###>$#*$*=",
">$$>>>*eeeeeeee*$eeeeeeeee$#*$$-X-##$>**>eeeeeeee$##*>$##$$#*$$>",
">>#*,=#eeeeeee#>#eeeeeeeee>#=$$-X-**$=#>>eeeeeeee=>##$$#@$>#=$>>",
">>*#<>eeeeeeee**#*eeeeeeeee##$$-X-*#$>#$eeeeeeeee***#*>###>$#$>>",
">>*>>#eeeeeeee*=**eeeeeeeeee#$$-o-*$>#$$eeeeeeee**###=>###>$#$>>",
">$*$$*eeeeeeee*>#@*eeeeeeeeee$=- -*$***#eeeeeeee#@*#=*$#*#>$#$=#",
">$=,=#eeeeeeee***@*eeeeeeeeeee#- -=$=#=>eeeeeeee*@**=@*###$*#$##",
">>$>**eeeeeeee#*#@##eeeeeeeeeee1.-#$**>eeeeeeeee#@###**#*##*#*#$",
"=>$>#*eeeeeee***=#@##eeeeeeeeee1@-#$#*#eeeeeeee*=#@#*#*#@*>**#*>",
"=$>###eeeeeee$>*#####=eeeeeeeeeeX-#####eeeeeeee*####==*#*@#*#*#>",
"=>>**#eeeeeeee**######eeeeeeeeeee;#**#*eeeeeeee*#*#*=#**#@#*#@#>",
"*=>$*#eeeeeeee####@*#*#eeeeeeeeee-#$*##eeeeeeee##*@******#@**##$",
"*=>###eeeeeeee#=*##*#*#$eeeeeeeeee#####eeeeeee#=*@#*@**#@@#**=*#",
"==***#eeeeeeee*>##*####$>eeeeeeeeee=*##eeeeeee*>#@*=@#**@*=*#=##",
"#*>>***eeeeeee#>##*##*#$>#eeeeeeeeee***eeeeeee#>#=*#****&&**##*#",
"#*=*#*#eeeeeee#**#*##*#$$#eeeeeeeeee#*#eeeeeee#**=*****&****#**#",
"#>=****eeeeeee+*#####*#$>#*eeeeeeeeee**eeeeeee+*##*****@*&**@***",
"#>#****eeeeeee**#*###=@$>#@@eeeeeeeeee*eeeeeee**#**@*=@**#**@***",
"@*#*>**eeeeeee****@####$>##@*eeeeeeeeeeeeeeeee*******##*****@***",
"+*#=*#=eeeeeee#=#*=##*#$>#@@*eeeeeeeeeeeeeeeee$=#**@**@**#**@***",
"#=#####eeeeeee**#***#@$$>##@**eeeeeeeeeeeeeeee**#******@*@******",
"#=##=##eeeeeee#**#*=#*>#>#@@*+*eeeeeeeeeeeeeee#**#**@*@**@***+@*",
"772-466eeeeeee67772-46694767777eeeeeeeeeeeeeee277766064746694767",
"=$$#$$#eeeeeee*@@***@@#>$#*##=*2eeeeeeeeeeeeee*+**#@**#*$>*#***#",
"**$#$$#eeeeeee*@@@**@##>$$@#***2oeeeeeeeeeeeee=#**#@**##$>####**",
"*#$#$$$eeeeeee=@@*+*@@#>#>*#=*#7oeeeeeeeeeeeee=##*#@**#*>$*=#*@#",
"*#$##$@eeeeeee#@@*@**@#>#$##***7o6eeeeeeeeeeee#+#**@**#*>#@=**@*",
"*##$#$$eeeeeeee@@**##@#>##*##**7o6#eeeeeeeeeee*@#*##**##$#*###@#",
"*#$$$$$eeeeeeee@@@**@@#>##*#***7o6@eeeeeeeeeee*@*@#*@*#@#*#*#@#=",
"$$#>$>*eeeeeeee@@#**@@#>##*#@**7o6##eeeeeeeeee#@###@**#@#*==####",
"*$*#$>#eeeeeeee@@***@*#>##**@#=6o6*#*eeeeeeeee****##@@#@**#=*#*#",
"*+@#>##eeeeeeee@@***@##$###*=*#6o2@##eeeeeeeee##=*#**@##*****@*#",
"$$#$$$##eeeeeee@@@**@##$##@#***7o2*#*$eeeeeee#=#****@@#***#@##**",
"@**$,$*#eeeeeee@@*+*@@#$##*#=*#2o2#+*$#eeeee##=#*****@#*@**+###*",
"*=#$$$*##eeeee=#@*@**@#$#@##***2o2@@*$#$=#*####+*#********#@##**",
"****$$####=@@@#*@**##@#$#@*##**7o2##*$##*#**##*@*****@*@**#+@#**",
"@***$$$#*#=@@+**@@**@@#$##*#***2o2@**$###**>##*@********@&@###**",
"*****$$*$*>@@**#@#**@@#>##@#@**2o2##*$#$**@>###@#****@***#@@#@*#",
"..o.oo .oo . .. ..o.oo . .. ..o@o@.o.. .. . oo..o.. .. .oo . .. ",
"XXOOOOOOOOOOoXoXXXOOOOOOoXoXXXO@.@XOXXXoXoOOOOOXOXXXoXoOOOOOoXoX",
"@*=#@***$#***###*#*#*####@##@**-X%##@****#$$@$@**#**#@#@@*@@@@@#",
"#**#*###$@**###*##**########@**-X-*####*#*#$@####**##+#@@@@@@@@#",
"#**#####$$#*#@#**#****@#####@*#-X-*#*##*@*$$###*****##@&@=*@**@#",
"#@######$$@#@#####@*@*#####@@#@%X-*#@***@##$###@**#*@@@@*@#@@@@*"
};
