/* XPM */
static char *Wall_South[] = {
/* columns rows colors chars-per-pixel */
"64 64 32 1 ",
"  c #0B0B0B",
". c #170F07",
"X c #1F170B",
"o c #131313",
"O c #1B1B1B",
"+ c #13230B",
"@ c #2B230F",
"# c #332B13",
"$ c #3F2F17",
"% c #2F371F",
"& c #232323",
"* c #272727",
"= c #2F2F2F",
"- c #373F27",
"; c #373737",
": c gray23",
"> c #43331B",
", c #4B371B",
"< c #533F1F",
"1 c #473323",
"2 c #4F3B23",
"3 c #4F3B2B",
"4 c #533F2F",
"5 c #3F472B",
"6 c #5B472B",
"7 c #574333",
"8 c #5F4B37",
"9 c #53573B",
"0 c #675333",
"q c #67533F",
"w c gray28",
"e c white",
/* pixels */
"++@@@@@@@@@@@+++@+@++++@@@@@@+++++@@@@@@@@@@@+++@+@++++@@@@@@+++",
"@===&&&&&@+@**&@*&&*@*##****#*>=@===&&&&&@+@**&@*&&*@*##****#*>=",
"=:7:===>:>=>=:>>w:77777777887::5X:7:===>:>=>=:>>w:777777777q7::>",
"w8777776<72222767227772272277773X7777776<72222767227772272277772",
"2224<22$2222,#2622#>2>,<2>$22222X5>>>2>$2222$#2622$>2>#22>$2222$",
">2222>2>>,2,,$>2>$#>2>,<,,$222>5X5#$>>$>,222#$>2>$$>2>#>>$$222>$",
">>,77>2>2,,>,$>>$$$$2>,<,,>22>eeeeeeeeeeeeeeeeeeee$$2>#$>#>22>>$",
">>,2222>7,<>,$>>$>$>>$,<,,$eeeeeeeeeeeeeeeeeeeeeeee>>$#$>#$22>#>",
"$>>27>227,<>,$>>$$#>>$,<,,eeeeeeeeeeeeeeeeeeeeeeeee>>$#$>$>>>>>$",
"=>>22$2$7,,2,$>>###>>>,<2eeeeeeeeeeeeeeeeeeeeeeeeee>>$##2#$>>$>*",
"$>>7>#2#2,,2,$>>##*>=>,<eeeeeeeeeeeeeeeeeeeeeeeeeee>=$##>>>$>#$*",
"$>>2,$2$>,,>,>>>#*$>>#>eeeeeeeeeeeeeeeeeeeeeeeeeeee>>#*#$$>>>#*$",
"$>$>2$2$>,,>,$#>##$>$eeeeeeeeeeeeeeeeeeeeeeeeeeeee>>$#*#$$>>$#$$",
"$>>>,>>$>2,2,$$>#*$>eeeeeeeeeeeeeee#$>$$,2,2>$$>#*>>$**#>,$$>$#$",
"$>$>>>>#22,2>$>>#>$>eeeeeeeeeeeeX1##$>>#,2,2>$>>#>*>##*$$,>>$$$$",
"$=>2>$#$7,,2>$>>$*$>eeeeeeeeee>1X1##$$#$7,,2>$>>$*$>**$#$>>>>$>$",
"$>>>>$*><>,2,#>>#>#$eeeeeeeee=$1X1##$$*>,,,2>#>>*>*$*$##>#>>#==$",
"*>>>>>*$,>,2,$2$#*#eeeeeeeee>*#1X-##$>**,>,2>$2>#**$**##$>$>>*#>",
"#>>>,>$$>$,7,$>##*#eeeeeeee>>#$1X-##$>$$>$,7>$>$****>*###$>>>##>",
">$$$2>#$>#>4,#>##*#eeeeeeee$#$$-X-##$>#$>#,4>*>==*#**@###$>$#$#>",
">##>,*$*>$$2,$$>##*eeeeeeee#*$$-X-*#$*$*>$,2>#*>*#***$###>$#*$*=",
">$$>>>**>$><,$$*$$#eeeeeee$#*$$-X-##$>**>$,>>#$*$$##*>$##$$#*$$>",
">>#*,=#>>#>,>$#>#=>eeeeeeee#=$$-X-**$=#>>#>>$*#>#=>##$$#@$>#=$>>",
">>*#<>#$>$#>>$**#**eeeeeeeee#$$-X-*#$>#$>$>>$***#***#*>###>$#$>>",
">>*>>#$$>$$>>#*=**#eeeeeeeee#$$-o-*$>#$$>$>>$#*=**###=>###>$#$>>",
">$*$$**#$>>>>#*>#@*eeeeeeeeee$=- -*$***#$>>>$**>#@*#=*$#*#>$#$=#",
">$=,=#=>#>>>$$***@**eeeeeeeeee#- -=$=#=>#>>>$$***@**=@*###$*#$##",
">>$>**>#>>#>$*#*#@###eeeeeeeeeee.-#$**>#>>$>$*#*#@###**#*##*#*#$",
"=>$>#*#>>$$$$***=#@##eeeeeeeeeeeeee$#*#>>$$>$***=#@#*#*#@*>**#*>",
"=$>####$>$$#$$>*#####=eeeeeeeeeeeeeeeeeeee$>$$>*####==*#*@#*#*#>",
"=>>**#*>$#$>$#**#######eeeeeeeeeeeeeeeeeeee>$#**#*#*=#**#@#*#@#>",
"*=>$*##$$#$>$#####@*#*#$eeeeeeeeeeeeeeeeeeeee####*@******#@**##$",
"*=>####*$#$>$##=*##*#*#$,eeeeeeeeeeeeeeeeeeeee#=*@#*@**#@@#**=*#",
"==***###$#$>*@*>##*####$>#eeeeeeeeeeeeeeeeeeeee>#@*=@#**@*=*#=##",
"#*>>***+$#$$###>##*##*#$>#*@eeeeeeeeeeeeeeeeeeee#=*#****&&**##*#",
"#*=*#*#*$#$$*##**#*##*#$$#**#*+eeeeeeeeeeeeeeeeee=*****&****#**#",
"#>=****=$#$#*#+*#####*#$>#*#@**-o-*=*eeeeeeeeeeeee*****@*&**@***",
"#>#*****$#$*##**#*###=@$>#@@**@%o;*****eeeeeeeeeeee@*=@**#**@***",
"@*#*>**>$#$##*****@####$>##@***%o-**>**>#eeeeeeeeee**##*****@***",
"+*#=*#=*$#$*###=#*=##*#$>#@@***%o-***#=*##eeeeeeeeee**@**#**@***",
"#=#####*$#$*##**#***#@$$>##@**@%.-**###**#$eeeeeeeeee**@*@******",
"#=##=###$#$*+##**#*=#*>#>#@@*+*%.-**=####$$$eeeeeeeee*@**@***+@*",
"772-466946694767772-466947677777O27776606476eeeeeeeee64746694767",
"=$$#$$##*=#****@@***@@#>$#*##=*2o6##*$#$*=#*=eeeeeeeee#*$>*#***#",
"**$#$$#**###***eeeee@##>$$@#***2o2##*$#$*#####eeeeeeee##$>####**",
"*#$#$$$####=**eeeeeee@#>#>*#=*#7o6#+*$#$###=##eeeeeeee#*>$*=#*@#",
"*#$##$@#=###**eeeeeeee#>#$##***7o6@@*$#$=#####eeeeeeee#*>#@=**@*",
"*##$#$$###****eeeeeeeeee##*##**7o6##*$####**##eeeeeeee##$#*###@#",
"*#$$$$$*#****#eeeeeeeeeee#*#***7o6@**$###**>eeeeeeeeee#@#*#*#@#=",
"$$#>$>*@*****#eeeeeeeeeeeeeee**7o6##*$#$**eeeeeeeeeeee#@#*==####",
"*$*#$>#****#@##eeeeeeeeeeeeeeeeee6eeeeeeeeeeeeeeeeeeee#@**#=*#*#",
"*+@#>###**=@*#*@eeeeeeeeeeeeeeeeeeeeeeeeeeeeeeeeeeeeee##*****@*#",
"$$#$$$###*#@*+@@@eeeeeeeeeeeeeeeeeeeeeeeeeeeeeeeeeeee@#***#@##**",
"@**$,$*###=@@*=@@*eeeeeeeeeeeeeeeeeeeeeeeeeeeeeeeeee*@#*@**+###*",
"*=#$$$*##==@@#=#@*@eeeeeeeeeeeeeeeeeeeeeeeeeeeeeee********#@##**",
"****$$####=@@@#*@**##eeeeeeeeeeeeeeeeeeeeeeeeeee*****@*@**#+@#**",
"@***$$$#*#=@@+**@@**@@#$#eeeeeeeeeeeeeeeeeeeee*@********@&@###**",
"*****$$*$*>@@**#@#**@@#>##@#eeeeeeeeee#$**@>###@#****@***#@@#@*#",
"..o.oo .oo . .. ..o.oo . .. ..o@o@.o.. .. . oo..o.. .. .oo . .. ",
"XXOOOOOOOOOOoXoXXXOOOOOOoXoXXXO@.@XOXXXoXoOOOOOXOXXXoXoOOOOOoXoX",
"@*=#@***$#***###*#*#*####@##@**-X%##@****#$$@$@**#**#@#@@*@@@@@#",
"#**#*###$@**###*##**########@**-X-*####*#*#$@####**##+#@@@@@@@@#",
"#**#####$$#*#@#**#****@#####@*#-X-*#*##*@*$$###*****##@&@=*@**@#",
"#@######$$@#@#####@*@*#####@@#@%X-*#@***@##$###@**#*@@@@*@#@@@@*"
};
