/* XPM */
static char *Wall_1[] = {
/* columns rows colors chars-per-pixel */
"64 64 31 1 ",
"  c #0B0B0B",
". c #170F07",
"X c #1F170B",
"o c #131313",
"O c #1B1B1B",
"+ c #13230B",
"@ c #2B230F",
"# c #332B13",
"$ c #3F2F17",
"% c #2F371F",
"& c #232323",
"* c #272727",
"= c #2F2F2F",
"- c #373F27",
"; c #373737",
": c gray23",
"> c #43331B",
", c #4B371B",
"< c #533F1F",
"1 c #473323",
"2 c #4F3B23",
"3 c #4F3B2B",
"4 c #533F2F",
"5 c #3F472B",
"6 c #5B472B",
"7 c #574333",
"8 c #5F4B37",
"9 c #53573B",
"0 c #675333",
"q c #67533F",
"w c gray28",
/* pixels */
"++@@@@@@@@@@@+++@+@++++@@@@@@+++++@@@@@@@@@@@+++@+@++++@@@@@@+++",
"@===&&&&&@+@**&@*&&*@*##****#*>=@===&&&&&@+@**&@*&&*@*##****#*>=",
"=:7:===>:>=>=:>>w:77777777887::5X:7:===>:>=>=:>>w:777777777q7::>",
"w8777776<72222767227772272277773X7777776<72222767227772272277772",
"2224<22$2222,#2622#>2>,<2>$22222X5>>>2>$2222$#2622$>2>#22>$2222$",
">2222>2>>,2,,$>2>$#>2>,<,,$222>5X5#$>>$>,222#$>2>$$>2>#>>$$222>$",
">>,77>2>2,,>,$>>$$$$2>,<,,>22>$5X5#$>>>>2,2>$$>>$$$$2>#$>#>22>>$",
">>,2222>7,<>,$>>$>$>>$,<,,$22>#1X5#$>2>>2<2>$*>>$>$>>$#$>#$22>#>",
"$>>27>227,<>,$>>$$#>>$,<,,>>>>$1X1#$>>>>2<,>$*>>$*$>>$#$>$>>>>>$",
"=>>22$2$7,,2,$>>###>>>,<2,$>>$>1X1#$$$>>2<,2$$>>$#$>>$##2#$>>$>*",
"$>>7>#2#2,,2,$>>##*>=>,<,,>$>#>1X1#$$#>>2,,2#$>>$#$>=$##>>>$>#$*",
"$>>2,$2$>,,>,>>>#*$>>#><,,>>>#$1X1##$$>$,,,>#>>>$*$>>#*#$$>>>#*$",
"$>$>2$2$>,,>,$#>##$>$>>,,,>>$#>1X1##$$$$,,,>#$#>$#>>$#*#$$>>$#$$",
"$>>>,>>$>2,2,$$>#*$>$#>,,,#$>>#1X1##$>$$,2,2>$$>#*>>$**#>,$$>$#$",
"$>$>>>>#22,2>$>>#>$>##$><,>>#*>1X1##$>>#,2,2>$>>#>*>##*$$,>>$$$$",
"$=>2>$#$7,,2>$>>$*$>$*,><,>>>$>1X1##$$#$7,,2>$>>$*$>**$#$>>>>$>$",
"$>>>>$*><>,2,#>>#>#$$$>>,,>>#=$1X1##$$*>,,,2>#>>*>*$*$##>#>>#==$",
"*>>>>>*$,>,2,$2$#*##$*>>,$$>>*#1X-##$>**,>,2>$2>#**$**##$>$>>*#>",
"#>>>,>$$>$,7,$>##*##>#$>$$>>>#$1X-##$>$$>$,7>$>$****>*###$>>>##>",
">$$$2>#$>#>4,#>##*##$#$$,$>$#$$-X-##$>#$>#,4>*>==*#**@###$>$#$#>",
">##>,*$*>$$2,$$>##*#$#,$>$$#*$$-X-*#$*$*>$,2>#*>*#***$###>$#*$*=",
">$$>>>**>$><,$$*$$##$>>$,$$#*$$-X-##$>**>$,>>#$*$$##*>$##$$#*$$>",
">>#*,=#>>#>,>$#>#=>##*>>,>>#=$$-X-**$=#>>#>>$*#>#=>##$$#@$>#=$>>",
">>*#<>#$>$#>>$**#***#*,>,>>##$$-X-*#$>#$>$>>$***#***#*>###>$#$>>",
">>*>>#$$>$$>>#*=**####,>,>>##$$-o-*$>#$$>$>>$#*=**###=>###>$#$>>",
">$*$$**#$>>>>#*>#@*###,>,>>##$=- -*$***#$>>>$**>#@*#=*$#*#>$#$=#",
">$=,=#=>#>>>$$***@**#@,>>>$##$#- -=$=#=>#>>>$$***@**=@*###$*#$##",
">>$>**>#>>#>$*#*#@####>$,$$*#*#1.-#$**>#>>$>$*#*#@###**#*##*#*#$",
"=>$>#*#>>$$$$***=#@###>$,$>$*#*1@-#$#*#>>$$>$***=#@#*#*#@*>**#*>",
"=$>####$>$$#$$>*#####=#$>$#=#*#1X-#####$>$$>$$>*####==*#*@#*#*#>",
"=>>**#*>$#$>$#**#######$$$###@#;X;#**#*>$#$>$#**#*#*=#**#@#*#@#>",
"*=>$*##$$#$>$#####@*#*#$>$@#*##%X-#$*##$$#$>$####*@******#@**##$",
"*=>####*$#$>$##=*##*#*#$,$#@*=*-X-########$>$##=*@#*@**#@@#**=*#",
"==***###$#$>*@*>##*####$>##@#=#%X-*=*##$##$>$@*>#@*=@#**@*=*#=##",
"#*>>***+$#$$###>##*##*#$>#*@##@-X;>>***+#*$$$##>#=*#****&&**##*#",
"#*=*#*#*$#$$*##**#*##*#$$#**#*+%X5==#*#***$$$##**=*****&****#**#",
"#>=****=$#$#*#+*#####*#$>#*#@**-o-*=***=@#$$$#+*##*****@*&**@***",
"#>#*****$#$*##**#*###=@$>#@@**@%o;******##$$##**#**@*=@**#**@***",
"@*#*>**>$#$##*****@####$>##@***%o-**>**>##$##********##*****@***",
"+*#=*#=*$#$*###=#*=##*#$>#@@***%o-***#=*##$$#$$=#**@**@**#**@***",
"#=#####*$#$*##**#***#@$$>##@**@%.-**###**#$$##**#******@*@******",
"#=##=###$#$*+##**#*=#*>#>#@@*+*%.-**=####$$$#$#**#**@*@**@***+@*",
"772-466946694767772-466947677777O2777660647674277766064746694767",
"=$$#$$##*=#****@@***@@#>$#*##=*2o6##*$#$*=#*=#*+**#@**#*$>*#***#",
"**$#$$#**###***@@@**@##>$$@#***2o2##*$#$*#####=#**#@**##$>####**",
"*#$#$$$####=**=@@*+*@@#>#>*#=*#7o6#+*$#$###=##=##*#@**#*>$*=#*@#",
"*#$##$@#=###**#@@*@**@#>#$##***7o6@@*$#$=######+#**@**#*>#@=**@*",
"*##$#$$###*****@@**##@#>##*##**7o6##*$####**##*@#*##**##$#*###@#",
"*#$$$$$*#****#*@@@**@@#>##*#***7o6@**$###**>##*@*@#*@*#@#*#*#@#=",
"$$#>$>*@*****##@@#**@@#>##*#@**7o6##*$#$**@>###@###@**#@#*==####",
"*$*#$>#****#@##@@***@*#>##**@#=6o6*#*$#$*#@###****##@@#@**#=*#*#",
"*+@#>###**=@*#*@@***@##$###*=*#6o2@##$##*####=##=*#**@##*****@*#",
"$$#$$$###*#@*+@@@@**@##$##@#***7o2*#*$#$**####=#****@@#***#@##**",
"@**$,$*###=@@*=@@*+*@@#$##*#=*#2o2#+*$#$##*=##=#*****@#*@**+###*",
"*=#$$$*##==@@#=#@*@**@#$#@##***2o2@@*$#$=#*####+*#********#@##**",
"****$$####=@@@#*@**##@#$#@*##**7o2##*$##*#**##*@*****@*@**#+@#**",
"@***$$$#*#=@@+**@@**@@#$##*#***2o2@**$###**>##*@********@&@###**",
"*****$$*$*>@@**#@#**@@#>##@#@**2o2##*$#$**@>###@#****@***#@@#@*#",
"..o.oo .oo . .. ..o.oo . .. ..o@o@.o.. .. . oo..o.. .. .oo . .. ",
"XXOOOOOOOOOOoXoXXXOOOOOOoXoXXXO@.@XOXXXoXoOOOOOXOXXXoXoOOOOOoXoX",
"@*=#@***$#***###*#*#*####@##@**-X%##@****#$$@$@**#**#@#@@*@@@@@#",
"#**#*###$@**###*##**########@**-X-*####*#*#$@####**##+#@@@@@@@@#",
"#**#####$$#*#@#**#****@#####@*#-X-*#*##*@*$$###*****##@&@=*@**@#",
"#@######$$@#@#####@*@*#####@@#@%X-*#@***@##$###@**#*@@@@*@#@@@@*"
};
